<?xml version="1.0" encoding="utf-8"?>
<!-- Generator: Adobe Illustrator 16.0.1, SVG Export Plug-In . SVG Version: 6.00 Build 0)  -->
<!DOCTYPE svg PUBLIC "-//W3C//DTD SVG 1.1//EN" "http://www.w3.org/Graphics/SVG/1.1/DTD/svg11.dtd">
<svg version="1.1" id="Layer_5" xmlns="http://www.w3.org/2000/svg" xmlns:xlink="http://www.w3.org/1999/xlink" x="0px" y="0px"
	 width="792px" height="612px" viewBox="0 0 792 612" enable-background="new 0 0 792 612" xml:space="preserve">
<path fill="#697379" d="M549.639,342.545c0.002-1.229-2.215-1.265-2.203,0.008c0,0,0-0.604,0-0.846
	c0.016-1.146-2.188-1.216-2.2,0.007v-0.44c0-1.251-2.307-1.277-2.307,0.007c0,0,0-2.586,0-4.218c0-1.203-2.341-1.246-2.341,0.005
	v7.485l-2.213-2.209c-0.757-0.913-2.629,0.405-1.872,1.48l5.129,6.233c0,0,1.097,1.354,3.285,1.354c1.963,0,2.704-0.394,3.481-1.2
	c0.754-0.78,1.24-1.657,1.24-2.938C549.639,346.904,549.639,343.337,549.639,342.545z"/>
</svg>
